{"title":"Star.Wars.Episode.VII.The.Force.Awakens.2015.720p.BluRay","uid":14088926,"size":1663406183,"categoryP":"video","categoryS":"hd___movies","magnet":"?xt=urn:btih:1f3ec5326c3526bbcc7a2b56b85a80c5d49db020&amp;dn=Star.Wars.Episode.VII.The.Force.Awakens.2015.720p.BluRay&amp;tr=udp%3A%2F%2Ftracker.leechers-paradise.org%3A6969&amp;tr=udp%3A%2F%2Fzer0day.ch%3A1337&amp;tr=udp%3A%2F%2Fopen.demonii.com%3A1337&amp;tr=udp%3A%2F%2Ftracker.coppersurfer.tk%3A6969&amp;tr=udp%3A%2F%2Fexodus.desync.com%3A6969","seeders":0,"leechers":0,"uploader":"BeeBee","files":2,"time":1459284153,"description":"Star.Wars.Episode.VII.The.Force.Awakens.2015.720p.BluRay.x264-Replica[rarbg]\r\n\r\nDownsample of 10GB MKV 1080p file keeping same file name (except the 720p) and the HD quality @ 720p.\r\n\r\nGeneral\r\n\r\nFormat                         : MPEG-4\r\nFormat profile                 : Base Media / Version 2\r\nCodec ID                       : mp42 (isom/iso2/avc1/mp41)\r\nFile size                      : 1.55 GiB\r\nDuration                       : 2h 18mn\r\nOverall bit rate mode          : Variable\r\nOverall bit rate               : 1 606 Kbps\r\nEncoded date                   : UTC 2016-03-23 16:46:05\r\nTagged date                    : UTC 2016-03-23 16:46:05\r\nWriting application            : HandBrake 0.10.5 2016021100\r\n\r\nVideo\r\nID                             : 1\r\nFormat                         : AVC\r\nFormat/Info                    : Advanced Video Codec\r\nFormat profile                 :   \r\nFormat settings, CABAC         : Yes\r\nFormat settings, ReFrames      : 8 frames\r\nCodec ID                       : avc1\r\nCodec ID/Info                  : Advanced Video Coding\r\nDuration                       : 2h 18mn\r\nBit rate                       : 1 280 Kbps\r\nWidth                          : 1 280 pixels\r\nHeight                         : 544 pixels\r\nDisplay aspect ratio           : 2.40:1\r\nFrame rate mode                : Variable\r\nFrame rate                     : 23.976 (24000/1001) fps\r\nMinimum frame rate             : 23.974 fps\r\nMaximum frame rate             : 23.981 fps\r\nColor space                    : YUV\r\nChroma subsampling             : 4:2:0\r\nBit depth                      : 8 bits\r\nScan type                      : Progressive\r\nBits/(Pixel*Frame)             : 0.077\r\nStream size                    : 1.23 GiB (80%)\r\nWriting library                : x264 core 142 r2479 dd79a61\r\nEncoding settings              : cabac=1 / ref=8 / deblock=1:0:0 / analyse=0x3:0x113 / me=hex / subme=7 / psy=1 / psy_rd=1.20:0.15 / mixed_ref=1 / me_range=16 / chroma_me=1 / trellis=1 / 8x8dct=1 / cqm=0 / deadzone=21,11 / fast_pskip=1 / chroma_qp_offset=-3 / threads=12 / lookahead_threads=2 / sliced_threads=0 / nr=0 / decimate=1 / interlaced=0 / bluray_compat=0 / constrained_intra=0 / bframes=8 / b_pyramid=2 / b_adapt=1 / b_bias=0 / direct=1 / weightb=1 / open_gop=0 / weightp=2 / keyint=240 / keyint_min=24 / scenecut=40 / intra_refresh=0 / rc_lookahead=40 / rc=2pass / mbtree=1 / bitrate=1280 / ratetol=1.0 / qcomp=0.60 / qpmin=0 / qpmax=69 / qpstep=4 / cplxblur=20.0 / qblur=0.5 / ip_ratio=1.40 / aq=1:1.00\r\nEncoded date                   : UTC 2016-03-23 16:46:05\r\nTagged date                    : UTC 2016-03-23 16:46:05\r\nColor range                    : Limited\r\nColor primaries                : BT.709\r\nTransfer characteristics       : BT.709\r\nMatrix coefficients            : BT.709\r\n\r\nAudio\r\nID                             : 2\r\nFormat                         : AAC\r\nFormat/Info                    : Advanced Audio Codec\r\nFormat profile                 : LC\r\nCodec ID                       : 40\r\nDuration                       : 2h 18mn\r\nBit rate mode                  : Variable\r\nBit rate                       : 320 Kbps\r\nChannel(s)                     : 2 channels\r\nChannel(s)_Original            : 6 channels\r\nChannel positions              : Front: L C R, Side: L R, LFE\r\nSampling rate                  : 48.0 KHz\r\nFrame rate                     : 46.875 fps (1024 spf)\r\nCompression mode               : Lossy\r\nStream size                    : 316 MiB (20%)\r\nTitle                          : Surround / Surround\r\nLanguage                       : English\r\nDefault                        : Yes\r\nAlternate group                : 1\r\nEncoded date                   : UTC 2016-03-23 16:46:05\r\nTagged date                    : UTC 2016-03-23 16:46:05","torrent":{"xt":"urn:btih:1f3ec5326c3526bbcc7a2b56b85a80c5d49db020","amp;dn":"Star.Wars.Episode.VII.The.Force.Awakens.2015.720p.BluRay","amp;tr":["udp%3A%2F%2Ftracker.leechers-paradise.org%3A6969","udp%3A%2F%2Fzer0day.ch%3A1337","udp%3A%2F%2Fopen.demonii.com%3A1337","udp%3A%2F%2Ftracker.coppersurfer.tk%3A6969","udp%3A%2F%2Fexodus.desync.com%3A6969"],"infoHash":"1f3ec5326c3526bbcc7a2b56b85a80c5d49db020","infoHashBuffer":{"type":"Buffer","data":[31,62,197,50,108,53,38,187,204,122,43,86,184,90,128,197,212,157,176,32]},"announce":[],"urlList":[]}}